<svg width="246" height="246" viewBox="0 0 246 246" fill="none" xmlns="http://www.w3.org/2000/svg">
<path d="M0.394043 122.625V245.052H122.821H245.249V122.625V0.197327H122.821H0.394043V122.625Z" fill="#007ACC"/>
<path d="M54.5397 123.436L54.462 133.464H70.397H86.332L86.332 178.743V224.021H97.6031H108.874V178.743L108.874 133.464H124.809H140.744V123.631C140.744 118.19 140.628 113.642 140.472 113.526C140.355 113.37 120.961 113.293 97.4476 113.331L54.6563 113.448L54.5397 123.436Z" fill="white"/>
<path d="M197.967 113.164C204.185 114.718 208.927 117.478 213.28 121.986C215.534 124.396 218.877 128.788 219.149 129.837C219.227 130.148 208.577 137.299 202.126 141.303C201.892 141.458 200.96 140.448 199.91 138.893C196.762 134.307 193.458 132.325 188.406 131.975C180.983 131.47 176.202 135.356 176.241 141.847C176.241 143.751 176.513 144.878 177.29 146.433C178.923 149.814 181.954 151.835 191.476 155.955C209.005 163.495 216.506 168.47 221.17 175.543C226.378 183.433 227.544 196.026 224.007 205.392C220.12 215.575 210.482 222.493 196.918 224.786C192.72 225.525 182.77 225.408 178.262 224.592C168.429 222.843 159.101 217.985 153.349 211.611C151.095 209.124 146.703 202.633 146.975 202.167C147.092 202.011 148.102 201.389 149.229 200.729C150.317 200.107 154.437 197.736 158.324 195.482L165.359 191.401L166.835 193.577C168.895 196.725 173.404 201.039 176.124 202.477C183.936 206.597 194.663 206.014 199.949 201.273C202.203 199.213 203.136 197.075 203.136 193.927C203.136 191.09 202.786 189.846 201.309 187.708C199.405 184.988 195.518 182.695 184.48 177.914C171.849 172.473 166.408 169.092 161.433 163.728C158.557 160.619 155.836 155.644 154.709 151.486C153.776 148.026 153.543 139.359 154.282 135.861C156.886 123.658 166.097 115.146 179.389 112.62C183.703 111.804 193.731 112.114 197.967 113.164Z" fill="white"/>
</svg>
