<svg width="258" height="258" viewBox="0 0 258 258" fill="none" xmlns="http://www.w3.org/2000/svg">
<path d="M127.056 0.588867C62.1247 0.588867 66.1789 28.6841 66.1789 28.6841L66.251 57.7916H128.213V66.5304H41.6405C41.6405 66.5304 0.0913086 61.8287 0.0913086 127.198C0.0913086 192.569 36.3565 190.25 36.3565 190.25H57.9994V159.916C57.9994 159.916 56.8327 123.731 93.6858 123.731H155.141C155.141 123.731 189.669 124.288 189.669 90.4356V34.463C189.669 34.463 194.913 0.588867 127.056 0.588867ZM92.8895 20.1631C94.3538 20.1618 95.8038 20.4485 97.1569 21.007C98.5099 21.5655 99.7392 22.3847 100.775 23.4177C101.81 24.4508 102.631 25.6774 103.191 27.0274C103.75 28.3774 104.038 29.8243 104.037 31.2852C104.038 32.7462 103.75 34.1931 103.191 35.5431C102.631 36.8931 101.81 38.1197 100.775 39.1527C99.7392 40.1858 98.5099 41.005 97.1569 41.5634C95.8038 42.1219 94.3538 42.4087 92.8895 42.4074C91.4253 42.4087 89.9752 42.1219 88.6222 41.5634C87.2692 41.005 86.0399 40.1858 85.0045 39.1527C83.9692 38.1197 83.1481 36.8931 82.5884 35.5431C82.0287 34.1931 81.7413 32.7462 81.7426 31.2852C81.7413 29.8243 82.0287 28.3774 82.5884 27.0274C83.1481 25.6774 83.9692 24.4508 85.0045 23.4177C86.0399 22.3847 87.2692 21.5655 88.6222 21.007C89.9752 20.4485 91.4253 20.1618 92.8895 20.1631Z" fill="url(#paint0_linear_856_1505)"/>
<path d="M130.54 258C195.471 258 191.416 229.905 191.416 229.905L191.344 200.798H129.381V192.059H215.954C215.954 192.059 257.503 196.761 257.503 131.39C257.503 66.0202 221.238 68.3385 221.238 68.3385H199.595V98.6722C199.595 98.6722 200.762 134.857 163.909 134.857H102.453C102.453 134.857 67.9255 134.3 67.9255 168.153V224.127C67.9255 224.127 62.6825 258 130.539 258H130.54ZM164.706 238.428C163.242 238.429 161.791 238.142 160.438 237.584C159.085 237.025 157.856 236.206 156.821 235.173C155.785 234.14 154.964 232.913 154.405 231.563C153.845 230.213 153.558 228.766 153.559 227.306C153.557 225.844 153.845 224.397 154.404 223.047C154.964 221.697 155.785 220.471 156.82 219.437C157.856 218.404 159.085 217.585 160.438 217.026C161.791 216.468 163.242 216.181 164.706 216.182C166.17 216.181 167.62 216.468 168.973 217.026C170.326 217.585 171.555 218.404 172.591 219.437C173.626 220.47 174.447 221.697 175.007 223.047C175.567 224.397 175.854 225.844 175.853 227.305C175.854 228.765 175.567 230.212 175.007 231.562C174.447 232.912 173.626 234.139 172.591 235.172C171.555 236.205 170.326 237.024 168.973 237.583C167.62 238.141 166.17 238.428 164.706 238.427V238.428Z" fill="url(#paint1_linear_856_1505)"/>
<defs>
<linearGradient id="paint0_linear_856_1505" x1="24.6708" y1="23.4234" x2="151.144" y2="148.914" gradientUnits="userSpaceOnUse">
<stop stop-color="#387EB8"/>
<stop offset="1" stop-color="#366994"/>
</linearGradient>
<linearGradient id="paint1_linear_856_1505" x1="104.112" y1="107.361" x2="239.943" y2="236.053" gradientUnits="userSpaceOnUse">
<stop stop-color="#FFE052"/>
<stop offset="1" stop-color="#FFC331"/>
</linearGradient>
</defs>
</svg>
